<svg preserveAspectRatio="none" width="100%" height="100%" overflow="visible" style="display: block;" viewBox="0 0 14.6667 14.6667" fill="none" xmlns="http://www.w3.org/2000/svg">
<g id="Group">
<path id="Vector" d="M8 0L8.00067 2.04133C9.17548 2.18986 10.2675 2.72495 11.1048 3.56234C11.942 4.39973 12.477 5.49184 12.6253 6.66667H14.6667V8L12.6253 8.00067C12.4768 9.17538 11.9418 10.2673 11.1046 11.1046C10.2673 11.9418 9.17538 12.4768 8.00067 12.6253L8 14.6667H6.66667V12.6253C5.49184 12.477 4.39973 11.942 3.56234 11.1048C2.72495 10.2675 2.18986 9.17548 2.04133 8.00067L0 8V6.66667H2.04133C2.18972 5.49174 2.72476 4.39956 3.56216 3.56216C4.39956 2.72476 5.49174 2.18972 6.66667 2.04133V0H8ZM7.33333 3.33333C6.27247 3.33333 5.25505 3.75476 4.50491 4.50491C3.75476 5.25505 3.33333 6.27247 3.33333 7.33333C3.33333 8.3942 3.75476 9.41162 4.50491 10.1618C5.25505 10.9119 6.27247 11.3333 7.33333 11.3333C8.3942 11.3333 9.41162 10.9119 10.1618 10.1618C10.9119 9.41162 11.3333 8.3942 11.3333 7.33333C11.3333 6.27247 10.9119 5.25505 10.1618 4.50491C9.41162 3.75476 8.3942 3.33333 7.33333 3.33333ZM7.33333 6C7.68696 6 8.02609 6.14048 8.27614 6.39052C8.52619 6.64057 8.66667 6.97971 8.66667 7.33333C8.66667 7.68696 8.52619 8.02609 8.27614 8.27614C8.02609 8.52619 7.68696 8.66667 7.33333 8.66667C6.97971 8.66667 6.64057 8.52619 6.39052 8.27614C6.14048 8.02609 6 7.68696 6 7.33333C6 6.97971 6.14048 6.64057 6.39052 6.39052C6.64057 6.14048 6.97971 6 7.33333 6V6Z" fill="var(--fill-0, black)" fill-opacity="0.88"/>
</g>
</svg>
