<svg preserveAspectRatio="none" width="100%" height="100%" overflow="visible" style="display: block;" viewBox="0 0 14 14" fill="none" xmlns="http://www.w3.org/2000/svg">
<path id="Vector" fill-rule="evenodd" clip-rule="evenodd" d="M6.98177 0C7.25791 0 7.48177 0.223858 7.48177 0.5L7.481 6.497L13.5 6.49798C13.7761 6.49798 14 6.72183 14 6.99798C14 7.27412 13.7761 7.49798 13.5 7.49798L7.481 7.497L7.48177 13.5C7.48177 13.7761 7.25791 14 6.98177 14C6.70562 14 6.48177 13.7761 6.48177 13.5L6.481 7.497L0.5 7.49798C0.223858 7.49798 0 7.27412 0 6.99798C0 6.72183 0.223858 6.49798 0.5 6.49798L6.481 6.497L6.48177 0.5C6.48177 0.223858 6.70562 0 6.98177 0Z" fill="var(--fill-0, white)"/>
</svg>
