<svg preserveAspectRatio="none" width="100%" height="100%" overflow="visible" style="display: block;" viewBox="0 0 12.7001 12.7004" fill="none" xmlns="http://www.w3.org/2000/svg">
<path id="Vector" d="M7.86172 2.7377C9.62072 2.71071 11.0871 4.15347 11.0873 5.9125C11.0873 6.88159 10.6528 7.74772 9.96816 8.33047C10.4482 8.56266 10.8859 8.87387 11.2631 9.25137C12.0742 10.061 12.556 11.1133 12.6391 12.2436L12.6498 12.4711L12.6381 12.5395C12.6296 12.5612 12.6163 12.5814 12.6 12.598C12.5838 12.6145 12.5647 12.6281 12.5434 12.6371C12.5218 12.6462 12.4984 12.6508 12.475 12.6508H11.6C11.5068 12.6508 11.4277 12.5768 11.4252 12.4818L11.4154 12.3148C11.3479 11.4843 10.9929 10.7117 10.3979 10.1166C9.77519 9.49395 8.96002 9.13462 8.0873 9.09219L7.9125 9.08828C7.45087 9.087 6.9933 9.17728 6.5668 9.35391C6.14057 9.53047 5.75353 9.78956 5.42813 10.1166H5.42715C4.79085 10.7514 4.42908 11.5883 4.3998 12.4818C4.39726 12.5768 4.31817 12.6508 4.225 12.6508H3.35C3.32666 12.6508 3.30315 12.6462 3.28164 12.6371C3.26035 12.6281 3.24119 12.6145 3.225 12.598C3.20871 12.5813 3.19545 12.5612 3.18691 12.5395C3.17839 12.5177 3.17463 12.4944 3.1752 12.4711L3.18594 12.2436C3.26896 11.1135 3.75006 10.061 4.55801 9.25137C4.93491 8.8739 5.37302 8.56249 5.85293 8.33047C5.17002 7.74777 4.73477 6.88139 4.73477 5.9125C4.73496 4.17592 6.12994 2.7647 7.86172 2.7377ZM4.84121 0.0501956C6.06042 0.0692457 7.11437 0.774618 7.63027 1.79531C7.68466 1.90408 7.61536 2.03509 7.49258 2.04824C7.27178 2.07137 7.05515 2.11441 6.84609 2.17422L6.64004 2.23965C6.56515 2.26605 6.47976 2.23727 6.43594 2.16934C6.34917 2.03545 6.24556 1.91085 6.12539 1.79824C5.77049 1.46619 5.30079 1.2784 4.81484 1.27383C4.27709 1.2678 3.77129 1.47817 3.39492 1.86367C3.05232 2.214 2.8559 2.67848 2.84219 3.16738C2.83407 3.43728 2.88229 3.70623 2.98379 3.95645C3.08529 4.20659 3.23822 4.43259 3.43203 4.62051C3.59634 4.78178 3.78638 4.91036 3.99355 5.00332H3.99453C4.04896 5.0282 4.0856 5.07979 4.09414 5.13711L4.09316 5.1957C4.05 5.42855 4.02678 5.66744 4.02676 5.9125C4.02676 6.04919 4.03443 6.18483 4.04824 6.31875L4.04434 6.3832C4.02888 6.44407 3.98074 6.49386 3.91738 6.51016C3.31225 6.66259 2.75713 6.97613 2.3041 7.4291C1.6678 8.06386 1.30603 8.90078 1.27676 9.79434C1.27422 9.88922 1.19498 9.9631 1.10195 9.96328H0.225C0.201665 9.96328 0.178146 9.95867 0.156641 9.94961C0.135353 9.94061 0.116187 9.92704 0.1 9.91055C0.0837072 9.89385 0.0704467 9.87367 0.0619141 9.85195C0.0533933 9.83024 0.0496255 9.80691 0.0501953 9.78359L0.0609375 9.55605C0.143928 8.42442 0.625679 7.37167 1.43691 6.56191C1.81932 6.17954 2.25755 5.87016 2.73281 5.64102C2.04856 5.05831 1.61374 4.19275 1.61367 3.22402C1.61367 1.46643 3.08065 0.0233309 4.84121 0.0501956ZM7.89297 3.96328C7.37047 3.96937 6.8807 4.17659 6.51504 4.55117L6.51602 4.55215C6.16717 4.91013 5.96688 5.3934 5.9623 5.89297C5.95874 6.15244 6.00773 6.41056 6.10586 6.65078C6.20398 6.89086 6.34948 7.10873 6.53359 7.29141C6.9007 7.66004 7.39135 7.86269 7.9125 7.8627C8.1688 7.86344 8.42275 7.81323 8.65957 7.71523C8.89643 7.6172 9.11154 7.4731 9.29238 7.29141C9.66114 6.92265 9.86367 6.43361 9.86367 5.9125C9.86358 5.38543 9.65649 4.89107 9.27871 4.5209C8.91016 4.15996 8.40938 3.95879 7.89297 3.96328Z" fill="var(--fill-0, black)" stroke="var(--stroke-0, black)" stroke-width="0.1"/>
</svg>
