<svg preserveAspectRatio="none" width="100%" height="100%" overflow="visible" style="display: block;" viewBox="0 0 11.95 13.825" fill="none" xmlns="http://www.w3.org/2000/svg">
<path id="Vector" d="M8.475 6.9252C10.3667 6.9252 11.8998 8.45832 11.8998 10.35C11.8998 12.2417 10.3667 13.7748 8.475 13.7748C6.58332 13.7748 5.0502 12.2417 5.0502 10.35C5.0502 8.45832 6.58332 6.9252 8.475 6.9252ZM10.6 0.0501953C10.9042 0.0501953 11.1498 0.295823 11.1498 0.6V6.6C11.1498 6.69636 11.0714 6.7748 10.975 6.7748H10.1C10.0036 6.7748 9.9252 6.69636 9.9252 6.6V1.2748H1.2748V12.1752H4.85C4.94636 12.1752 5.0248 12.2536 5.0248 12.35V13.225C5.0248 13.3214 4.94636 13.3998 4.85 13.3998H0.6C0.295823 13.3998 0.0501953 13.1542 0.0501953 12.85V0.6C0.0501953 0.295823 0.295823 0.0501953 0.6 0.0501953H10.6ZM8.475 8.0248C7.85386 8.0248 7.26951 8.26642 6.83047 8.70547C6.39142 9.14451 6.1498 9.72886 6.1498 10.35C6.1498 10.9711 6.39142 11.5555 6.83047 11.9945C7.26951 12.4336 7.85386 12.6752 8.475 12.6752C9.09614 12.6752 9.68049 12.4336 10.1195 11.9945C10.5586 11.5555 10.8002 10.9711 10.8002 10.35C10.8002 9.72886 10.5586 9.14451 10.1195 8.70547C9.68049 8.26642 9.09614 8.0248 8.475 8.0248ZM9.86563 9.1127C10.008 9.1127 10.0916 9.27502 10.0063 9.39102L8.22207 11.8588C8.1521 11.955 8.00883 11.955 7.93887 11.8588L6.78652 10.2641L6.78555 10.2631C6.70307 10.1473 6.78592 9.98574 6.92813 9.98574H7.61758C7.645 9.98564 7.6722 9.99194 7.69668 10.0043C7.72139 10.0168 7.74297 10.0355 7.75918 10.058L8.07949 10.5004L9.03164 9.18496L9.05996 9.15371C9.09133 9.12709 9.13135 9.11274 9.17324 9.1127H9.86563ZM5.475 5.1127C5.57136 5.1127 5.6498 5.19114 5.6498 5.2875V6.0375C5.6498 6.13386 5.57136 6.2123 5.475 6.2123H2.6C2.50364 6.2123 2.4252 6.13386 2.4252 6.0375V5.2875C2.4252 5.19114 2.50364 5.1127 2.6 5.1127H5.475ZM8.6 2.8627C8.69636 2.8627 8.7748 2.94114 8.7748 3.0375V3.7875C8.7748 3.88386 8.69636 3.9623 8.6 3.9623H2.6C2.50364 3.9623 2.4252 3.88386 2.4252 3.7875V3.0375C2.4252 2.94114 2.50364 2.8627 2.6 2.8627H8.6Z" fill="var(--fill-0, black)" fill-opacity="0.85" stroke="var(--stroke-0, black)" stroke-width="0.1"/>
</svg>
