<svg preserveAspectRatio="none" width="100%" height="100%" overflow="visible" style="display: block;" viewBox="0 0 18 18" fill="none" xmlns="http://www.w3.org/2000/svg">
<g id="Frame">
<path id="Vector" d="M1.29825 8.30813C1.24497 8.35802 1.2022 8.41805 1.17245 8.4847C1.1427 8.55135 1.12657 8.62328 1.125 8.69625C1.125 8.82562 1.16775 8.955 1.29825 9.0855L3.98025 11.8552C4.06688 11.898 4.19738 11.9846 4.37063 11.9846C4.5 11.9846 4.67325 11.9407 4.75988 11.8114L7.57238 9.04162C7.62573 8.99156 7.66855 8.93134 7.6983 8.86449C7.72805 8.79765 7.74414 8.72553 7.74563 8.65237C7.74563 8.47912 7.70175 8.34975 7.57238 8.26312L4.75988 5.53725C4.70985 5.48384 4.64964 5.44099 4.58278 5.41124C4.51593 5.38148 4.44379 5.36542 4.37063 5.364C4.29709 5.36414 4.22438 5.37962 4.15717 5.40946C4.08995 5.43929 4.02969 5.48281 3.98025 5.53725L1.29825 8.30813ZM16.5285 1.6875C16.5283 1.61423 16.513 1.5418 16.4833 1.47479C16.4537 1.40778 16.4105 1.34767 16.3564 1.29825C16.2497 1.19782 16.112 1.13671 15.966 1.125H11.6831C11.6098 1.1253 11.5373 1.14086 11.4703 1.17068C11.4033 1.20051 11.3432 1.24395 11.2939 1.29825C11.1937 1.40461 11.1326 1.54186 11.1206 1.6875V2.76975H8.69625C8.62298 2.76991 8.55055 2.78529 8.48354 2.81492C8.41653 2.84455 8.35642 2.88778 8.307 2.94187C8.20657 3.04853 8.14546 3.18622 8.13375 3.33225V14.1491C8.13375 14.2785 8.1765 14.4079 8.307 14.5384C8.39363 14.625 8.56575 14.7116 8.69625 14.7116H11.1195V16.3125C11.1195 16.4419 11.1623 16.5712 11.2928 16.7017C11.3783 16.7884 11.5515 16.875 11.682 16.875H15.9649C16.0384 16.8749 16.1111 16.8594 16.1783 16.8295C16.2456 16.7997 16.3058 16.7562 16.3553 16.7017C16.455 16.5952 16.5157 16.458 16.5274 16.3125V12.8081C16.5272 12.7349 16.5118 12.6624 16.4822 12.5954C16.4526 12.5284 16.4093 12.4683 16.3553 12.4189C16.2486 12.3184 16.1109 12.2573 15.9649 12.2456H11.682C11.6087 12.2459 11.5362 12.2615 11.4692 12.2913C11.4021 12.3211 11.3421 12.3646 11.2928 12.4189C11.1925 12.5252 11.1314 12.6625 11.1195 12.8081V13.0669H10.0373C9.9639 13.0666 9.89142 13.051 9.8244 13.0212C9.75739 12.9914 9.69732 12.9479 9.648 12.8936C9.5478 12.7873 9.48671 12.65 9.47475 12.5044V4.62937C9.47505 4.55602 9.49061 4.48354 9.52043 4.41653C9.55026 4.34951 9.5937 4.28944 9.648 4.24012C9.75436 4.13993 9.89161 4.07884 10.0373 4.06687H11.1195V5.14912C11.1195 5.2785 11.1623 5.40787 11.2928 5.53837C11.3783 5.625 11.5515 5.71162 11.682 5.71162H15.9649C16.0384 5.71148 16.1111 5.696 16.1783 5.66617C16.2456 5.63634 16.3058 5.59281 16.3553 5.53837C16.455 5.43185 16.5157 5.29462 16.5274 5.14912V1.6875H16.5285Z" fill="var(--fill-0, #9254DE)"/>
<path id="Vector_2" d="M1.125 8.69597C1.125 8.52384 1.21162 8.39447 1.29825 8.30784L3.98025 5.53809C4.02969 5.48366 4.08995 5.44013 4.15717 5.4103C4.22438 5.38047 4.29708 5.36499 4.37062 5.36484C4.54275 5.36484 4.67325 5.45147 4.75987 5.53809L7.57237 8.26397C7.70175 8.35059 7.74562 8.47997 7.74562 8.65322C7.74562 8.82647 7.659 8.95697 7.57237 9.04247L4.75875 11.8122C4.67212 11.9416 4.49887 11.9855 4.3695 11.9855C4.19625 11.9855 4.06575 11.8988 3.97912 11.8561L1.29825 9.08634C1.24381 9.0369 1.20029 8.97664 1.17046 8.90943C1.14062 8.84221 1.12514 8.76951 1.125 8.69597Z" fill="var(--fill-0, #9254DE)"/>
</g>
</svg>
