<svg preserveAspectRatio="none" width="100%" height="100%" overflow="visible" style="display: block;" viewBox="0 0 1.75 10.5" fill="none" xmlns="http://www.w3.org/2000/svg">
<path id="Vector" d="M0 0.875C0 1.10706 0.092187 1.32962 0.256281 1.49372C0.420376 1.65781 0.642936 1.75 0.875 1.75C1.10706 1.75 1.32962 1.65781 1.49372 1.49372C1.65781 1.32962 1.75 1.10706 1.75 0.875C1.75 0.642936 1.65781 0.420376 1.49372 0.256282C1.32962 0.0921873 1.10706 0 0.875 0C0.642936 0 0.420376 0.0921873 0.256281 0.256282C0.092187 0.420376 0 0.642936 0 0.875ZM0 5.25C0 5.48206 0.092187 5.70462 0.256281 5.86872C0.420376 6.03281 0.642936 6.125 0.875 6.125C1.10706 6.125 1.32962 6.03281 1.49372 5.86872C1.65781 5.70462 1.75 5.48206 1.75 5.25C1.75 5.01794 1.65781 4.79538 1.49372 4.63128C1.32962 4.46719 1.10706 4.375 0.875 4.375C0.642936 4.375 0.420376 4.46719 0.256281 4.63128C0.092187 4.79538 0 5.01794 0 5.25V5.25ZM0 9.625C0 9.85706 0.092187 10.0796 0.256281 10.2437C0.420376 10.4078 0.642936 10.5 0.875 10.5C1.10706 10.5 1.32962 10.4078 1.49372 10.2437C1.65781 10.0796 1.75 9.85706 1.75 9.625C1.75 9.39294 1.65781 9.17038 1.49372 9.00628C1.32962 8.84219 1.10706 8.75 0.875 8.75C0.642936 8.75 0.420376 8.84219 0.256281 9.00628C0.092187 9.17038 0 9.39294 0 9.625V9.625Z" fill="var(--fill-0, #2673DD)"/>
</svg>
