<svg preserveAspectRatio="none" width="100%" height="100%" overflow="visible" style="display: block;" viewBox="0 0 4.03333 5.5" fill="none" xmlns="http://www.w3.org/2000/svg">
<path id="Vector" d="M4.03333 2.42917C4.03333 2.8875 3.94167 3.25417 3.80417 3.575C3.66667 3.89583 3.48333 4.17083 3.20833 4.35417L3.9875 4.95L3.39167 5.5L2.38333 4.72083C2.29167 4.72083 2.15417 4.76667 2.01667 4.76667C1.74167 4.76667 1.46667 4.72083 1.19167 4.62917C0.9625 4.5375 0.733333 4.35417 0.55 4.17083C0.366667 3.9875 0.229167 3.7125 0.1375 3.4375C0.0458332 3.1625 0 2.84167 0 2.475V2.29167C0 1.925 0.0458332 1.60417 0.1375 1.32917C0.229167 1.05417 0.366667 0.779167 0.55 0.595833C0.733333 0.4125 0.916667 0.229167 1.19167 0.1375C1.42083 0.0458332 1.69583 0 2.01667 0C2.29167 0 2.56667 0.0458332 2.84167 0.1375C3.07083 0.229167 3.3 0.4125 3.48333 0.595833C3.66667 0.779167 3.80417 1.05417 3.89583 1.32917C3.9875 1.60417 4.03333 1.925 4.03333 2.29167V2.42917ZM3.025 2.2C3.025 1.69583 2.93333 1.32917 2.75 1.1C2.56667 0.825 2.3375 0.733333 2.01667 0.733333C1.69583 0.733333 1.42083 0.870833 1.28333 1.1C1.1 1.375 1.00833 1.74167 1.00833 2.2V2.42917C1.00833 2.65833 1.05417 2.8875 1.1 3.07083C1.14583 3.25417 1.19167 3.4375 1.28333 3.52917C1.375 3.66667 1.46667 3.75833 1.60417 3.80417C1.74167 3.85 1.87917 3.89583 2.01667 3.89583C2.3375 3.89583 2.6125 3.75833 2.75 3.52917C2.93333 3.25417 3.025 2.8875 3.025 2.38333V2.2Z" fill="var(--fill-0, white)"/>
</svg>
