<svg preserveAspectRatio="none" width="100%" height="100%" overflow="visible" style="display: block;" viewBox="0 0 14.0098 14.003" fill="none" xmlns="http://www.w3.org/2000/svg">
<path id="Exclude" fill-rule="evenodd" clip-rule="evenodd" d="M6 0C9.31371 0 12 2.68629 12 6C12 7.47517 11.4676 8.82599 10.5846 9.87084L13.8634 13.1494C14.0587 13.3447 14.0587 13.6613 13.8634 13.8565C13.6898 14.0301 13.4204 14.0494 13.2255 13.9144L13.1563 13.8565L9.87783 10.5786C8.83202 11.4653 7.47846 12 6 12C2.68629 12 0 9.31371 0 6C0 2.68629 2.68629 0 6 0ZM6 1C3.23858 1 1 3.23858 1 6C1 8.76142 3.23858 11 6 11C8.76142 11 11 8.76142 11 6C11 3.23858 8.76142 1 6 1Z" fill="var(--fill-0, #333333)"/>
</svg>
