<svg preserveAspectRatio="none" width="100%" height="100%" overflow="visible" style="display: block;" viewBox="0 0 12.375 15.75" fill="none" xmlns="http://www.w3.org/2000/svg">
<path id="Vector" d="M11.8125 0H2.39062C2.31328 0 2.25 0.0632812 2.25 0.140625V1.125C2.25 1.20234 2.31328 1.26562 2.39062 1.26562H11.1094V13.3594C11.1094 13.4367 11.1727 13.5 11.25 13.5H12.2344C12.3117 13.5 12.375 13.4367 12.375 13.3594V0.5625C12.375 0.251367 12.1236 0 11.8125 0ZM9.5625 2.25H0.5625C0.251367 2.25 0 2.50137 0 2.8125V12.1412C0 12.2906 0.0597655 12.433 0.165234 12.5385L3.21152 15.5848C3.2502 15.6234 3.29414 15.6551 3.3416 15.6814V15.7148H3.41543C3.47695 15.7377 3.54199 15.75 3.60879 15.75H9.5625C9.87363 15.75 10.125 15.4986 10.125 15.1875V2.8125C10.125 2.50137 9.87363 2.25 9.5625 2.25ZM3.33984 13.9254L1.82637 12.4102H3.33984V13.9254ZM8.85938 14.4844H4.46484V11.9883C4.46484 11.5998 4.1502 11.2852 3.76172 11.2852H1.26562V3.51562H8.85938V14.4844Z" fill="var(--fill-0, #666666)"/>
</svg>
