<svg preserveAspectRatio="none" width="100%" height="100%" overflow="visible" style="display: block;" viewBox="0 0 12.6275 12.3133" fill="none" xmlns="http://www.w3.org/2000/svg">
<path id="Union" d="M11.4598 0.146367C11.6551 -0.0488422 11.9716 -0.0487356 12.1669 0.146367C12.3621 0.341629 12.3621 0.658136 12.1669 0.853398L7.02039 5.99891L12.4813 11.4598C12.6764 11.655 12.6762 11.9716 12.4813 12.1669C12.2861 12.3621 11.9686 12.3621 11.7733 12.1669L6.31336 6.70691L0.853398 12.1669C0.658136 12.3621 0.341629 12.3621 0.146367 12.1669C-0.0487356 11.9716 -0.0488422 11.6551 0.146367 11.4598L5.60633 5.99988L0.459843 0.853398C0.264769 0.658151 0.264719 0.341582 0.459843 0.146367C0.655052 -0.0488422 0.971599 -0.0487356 1.16687 0.146367L6.31336 5.29187L11.4598 0.146367Z" fill="var(--fill-0, #B7B7B7)"/>
</svg>
