<svg preserveAspectRatio="none" width="100%" height="100%" overflow="visible" style="display: block;" viewBox="0 0 14.1818 14.7727" fill="none" xmlns="http://www.w3.org/2000/svg">
<path id="Vector" d="M4.28409 1.32955H4.13636C4.21761 1.32955 4.28409 1.26307 4.28409 1.18182V1.32955H9.89773V1.18182C9.89773 1.26307 9.9642 1.32955 10.0455 1.32955H9.89773V2.65909H11.2273V1.18182C11.2273 0.529972 10.6973 0 10.0455 0H4.13636C3.48452 0 2.95455 0.529972 2.95455 1.18182V2.65909H4.28409V1.32955ZM13.5909 2.65909H0.590909C0.264062 2.65909 0 2.92315 0 3.25V3.84091C0 3.92216 0.0664773 3.98864 0.147727 3.98864H1.26307L1.71918 13.6463C1.74872 14.276 2.26946 14.7727 2.89915 14.7727H11.2827C11.9142 14.7727 12.4331 14.2778 12.4626 13.6463L12.9187 3.98864H14.0341C14.1153 3.98864 14.1818 3.92216 14.1818 3.84091V3.25C14.1818 2.92315 13.9178 2.65909 13.5909 2.65909ZM11.1405 13.4432H3.04134L2.59446 3.98864H11.5874L11.1405 13.4432Z" fill="var(--fill-0, #666666)"/>
</svg>
