<svg preserveAspectRatio="none" width="100%" height="100%" overflow="visible" style="display: block;" viewBox="0 0 14 14" fill="none" xmlns="http://www.w3.org/2000/svg">
<path id="Exclude" fill-rule="evenodd" clip-rule="evenodd" d="M7 0C10.866 0 14 3.13401 14 7C14 10.866 10.866 14 7 14C3.13401 14 0 10.866 0 7C0 3.13401 3.13401 0 7 0ZM7 1C3.68629 1 1 3.68629 1 7C1 10.3137 3.68629 13 7 13C10.3137 13 13 10.3137 13 7C13 3.68629 10.3137 1 7 1ZM6.98751 9.23751C7.40172 9.23751 7.73751 9.57329 7.73751 9.98751C7.73751 10.4017 7.40172 10.7375 6.98751 10.7375C6.57329 10.7375 6.23751 10.4017 6.23751 9.98751C6.23751 9.57329 6.57329 9.23751 6.98751 9.23751ZM7.117 3.60513C8.97012 3.60513 9.77458 5.50497 8.94298 6.72186C8.76926 6.97607 8.56587 7.14547 8.2705 7.31455L8.11487 7.39945L7.95825 7.47994C7.56296 7.68261 7.49391 7.75809 7.49391 8.02099C7.49391 8.29713 7.27005 8.52099 6.99391 8.52099C6.71777 8.52099 6.49391 8.29713 6.49391 8.02099C6.49391 7.34167 6.76504 6.99682 7.35914 6.66626L7.76655 6.45066C7.94241 6.35025 8.04308 6.26634 8.11736 6.15765C8.52116 5.56675 8.11397 4.60513 7.117 4.60513C6.41792 4.60513 5.82815 5.01273 5.75716 5.55276L5.75 5.66245L5.74194 5.75233C5.69961 5.98557 5.49546 6.16245 5.25 6.16245C4.97386 6.16245 4.75 5.93859 4.75 5.66245C4.75 4.44257 5.87194 3.60513 7.117 3.60513Z" fill="var(--fill-0, #B7B7B7)"/>
</svg>
