<svg preserveAspectRatio="none" width="100%" height="100%" overflow="visible" style="display: block;" viewBox="0 0 14 14" fill="none" xmlns="http://www.w3.org/2000/svg">
<path id="Exclude" fill-rule="evenodd" clip-rule="evenodd" d="M13.4517 4.27561C13.0989 3.44155 12.593 2.69362 11.9504 2.05098C11.3077 1.40834 10.5598 0.902432 9.72575 0.549663C8.86298 0.184588 7.9455 0 7.00068 0C6.05586 0 5.13839 0.184588 4.27561 0.549663C3.44155 0.902432 2.69362 1.40834 2.05098 2.05098C1.40834 2.69362 0.902432 3.44155 0.549663 4.27561C0.184588 5.13839 0 6.05586 0 7.00068C0 7.9455 0.184588 8.86298 0.549663 9.72575C0.902432 10.5598 1.40834 11.3077 2.05098 11.9504C2.69362 12.593 3.44291 13.0976 4.27561 13.4503C5.13839 13.8154 6.05586 14 7.00068 14C7.9455 14 8.86298 13.8154 9.72575 13.4503C10.5598 13.0989 11.3077 12.593 11.9504 11.9504C12.593 11.3077 13.0976 10.5585 13.4503 9.72575C13.8154 8.86298 14 7.9455 14 7.00068C14 6.05586 13.8168 5.13839 13.4517 4.27561ZM7.00068 10.9386C6.51802 10.9386 6.1256 10.5461 6.1256 10.0635C6.1256 9.58082 6.51802 9.1884 7.00068 9.1884C7.48335 9.1884 7.87577 9.58082 7.87577 10.0635C7.87577 10.5461 7.48335 10.9386 7.00068 10.9386ZM7.87577 3.93515C7.87577 3.93652 7.87577 3.93652 7.87577 3.93515V3.94746C7.87577 3.99941 7.8703 4.05 7.86073 4.09923L7.43549 7.92363C7.41088 8.14513 7.22356 8.31331 7.00068 8.31331C6.77781 8.31331 6.59049 8.14513 6.56588 7.92499L6.14064 4.1006C6.13107 4.05137 6.1256 4.00078 6.1256 3.94882V3.91464C6.1379 3.44291 6.52486 3.06143 7.00068 3.06143C7.47651 3.06143 7.86346 3.44155 7.87577 3.91464V3.93515Z" fill="var(--fill-0, #FFBF00)"/>
</svg>
