<svg preserveAspectRatio="none" width="100%" height="100%" overflow="visible" style="display: block;" viewBox="0 0 16 16" fill="none" xmlns="http://www.w3.org/2000/svg">
<g id="Group">
<g id="Vector">
</g>
<path id="Vector_2" d="M14 12H4C3.82319 12 3.65362 12.0702 3.5286 12.1952C3.40357 12.3202 3.33333 12.4898 3.33333 12.6666C3.33333 12.8434 3.40357 13.013 3.5286 13.138C3.65362 13.263 3.82319 13.3333 4 13.3333H14V14.6666H4C3.46957 14.6666 2.96086 14.4559 2.58579 14.0808C2.21071 13.7058 2 13.1971 2 12.6666V2.66662C2 2.313 2.14048 1.97386 2.39052 1.72381C2.64057 1.47376 2.97971 1.33329 3.33333 1.33329H14V12ZM3.33333 10.7C3.44133 10.678 3.55267 10.6666 3.66667 10.6666H12.6667V2.66662H3.33333V10.7ZM10.6667 5.99995H5.33333V4.66662H10.6667V5.99995Z" fill="var(--fill-0, black)" fill-opacity="0.88"/>
</g>
</svg>
