<svg preserveAspectRatio="none" width="100%" height="100%" overflow="visible" style="display: block;" viewBox="0 0 12.9 11.5169" fill="none" xmlns="http://www.w3.org/2000/svg">
<g id="Group 29394">
<path id="Vector" d="M9.03008 0.100391C9.23875 0.100321 9.44407 0.155264 9.6248 0.25957C9.80548 0.363874 9.95604 0.513464 10.0604 0.694141L12.6404 5.16387C12.7449 5.3445 12.7996 5.54994 12.7996 5.75859C12.7996 5.96712 12.7448 6.17181 12.6404 6.35234L10.0604 10.823C9.95602 11.0037 9.8055 11.1533 9.6248 11.2576C9.44407 11.3619 9.23875 11.4169 9.03008 11.4168H3.86992C3.66125 11.4169 3.45593 11.3619 3.2752 11.2576C3.0945 11.1533 2.94398 11.0037 2.83965 10.823L0.25957 6.35234C0.155221 6.17181 0.100416 5.96712 0.100391 5.75859C0.100391 5.54994 0.155114 5.3445 0.25957 5.16387L2.83965 0.694141C2.94396 0.513464 3.09451 0.363874 3.2752 0.25957C3.45593 0.155264 3.66125 0.100321 3.86992 0.100391H9.03008ZM4.34844 1.13164C4.17514 1.13156 4.00447 1.17797 3.8543 1.26445C3.70438 1.35091 3.57977 1.47508 3.49297 1.6248L1.39141 5.26445C1.30477 5.41467 1.25957 5.58518 1.25957 5.75859C1.2596 5.93204 1.30471 6.10251 1.39141 6.25273L3.49297 9.89043C3.57971 10.0407 3.70406 10.166 3.8543 10.2527C4.00446 10.3394 4.17505 10.3845 4.34844 10.3846H8.55156C8.72486 10.3847 8.89553 10.3392 9.0457 10.2527C9.19579 10.1662 9.3202 10.0413 9.40703 9.89141L11.5086 6.25371C11.5952 6.10351 11.6404 5.93296 11.6404 5.75957C11.6404 5.58615 11.5953 5.41564 11.5086 5.26543L9.40703 1.62676C9.32031 1.47656 9.19589 1.3512 9.0457 1.26445C8.89554 1.17776 8.72495 1.13169 8.55156 1.13164H4.34844Z" fill="var(--fill-0, black)" stroke="var(--stroke-0, black)" stroke-width="0.2"/>
<path id="Vector_2" d="M6.47447 3.5146C7.11942 3.51481 7.73813 3.77047 8.1942 4.22652C8.65037 4.68269 8.90602 5.3021 8.90611 5.94722C8.90602 6.428 8.76395 6.898 8.49693 7.29781C8.22967 7.6978 7.84957 8.01017 7.40513 8.19429C6.96079 8.37834 6.47158 8.4267 5.99986 8.33296C5.52799 8.2391 5.09397 8.00715 4.75377 7.66695C4.41359 7.32675 4.18161 6.89271 4.08775 6.42085C3.99404 5.94915 4.04238 5.4599 4.22642 5.01558C4.41055 4.57116 4.72293 4.19104 5.12291 3.92378C5.52285 3.65667 5.99352 3.5146 6.47447 3.5146ZM7.00572 4.66402C6.75195 4.5589 6.47239 4.53133 6.20299 4.58492C5.93364 4.63852 5.68624 4.7706 5.49205 4.9648C5.29785 5.15899 5.16577 5.40639 5.11217 5.67574C5.05858 5.94514 5.08615 6.2247 5.19127 6.47847C5.29635 6.73199 5.47386 6.94899 5.70201 7.10152C5.9304 7.25412 6.19979 7.33589 6.47447 7.33589C6.84264 7.33577 7.19557 7.18901 7.45592 6.92867C7.71626 6.66832 7.86302 6.31539 7.86314 5.94722C7.86314 5.67254 7.78137 5.40315 7.62877 5.17476C7.47624 4.94661 7.25924 4.7691 7.00572 4.66402Z" fill="var(--fill-0, black)" stroke="var(--stroke-0, black)" stroke-width="0.2"/>
</g>
</svg>
