<svg preserveAspectRatio="none" width="100%" height="100%" overflow="visible" style="display: block;" viewBox="0 0 12 12" fill="none" xmlns="http://www.w3.org/2000/svg">
<path id="Vector" d="M6 0C2.68594 0 0 2.68594 0 6V11.625C0 11.8328 0.167187 12 0.375 12H3.25C3.80156 12 4.25 11.5516 4.25 11V7.75C4.25 7.19844 3.80156 6.75 3.25 6.75H1.125V6C1.125 3.30781 3.30781 1.125 6 1.125C8.69219 1.125 10.875 3.30781 10.875 6V6.75H8.75C8.19844 6.75 7.75 7.19844 7.75 7.75V11C7.75 11.5516 8.19844 12 8.75 12H11.625C11.8328 12 12 11.8328 12 11.625V6C12 2.68594 9.31406 0 6 0ZM3.125 7.875V10.875H1.125V7.875H3.125ZM10.875 10.875H8.875V7.875H10.875V10.875Z" fill="var(--fill-0, #262626)"/>
</svg>
