<svg preserveAspectRatio="none" width="100%" height="100%" overflow="visible" style="display: block;" viewBox="0 0 12 13.3333" fill="none" xmlns="http://www.w3.org/2000/svg">
<path id="Vector" d="M1.33333 4V12H4V4H1.33333ZM0 3.33333L2.66667 0L5.33333 3.33333V13.3333H0V3.33333ZM10.6667 9.33333V8H8.66667V6.66667H10.6667V5.33333H9.33333V4H10.6667V2.66667H8V12H10.6667V10.6667H9.33333V9.33333H10.6667ZM7.33333 1.33333H11.3333C11.5101 1.33333 11.6797 1.40357 11.8047 1.5286C11.9298 1.65362 12 1.82319 12 2V12.6667C12 12.8435 11.9298 13.013 11.8047 13.1381C11.6797 13.2631 11.5101 13.3333 11.3333 13.3333H7.33333C7.15652 13.3333 6.98695 13.2631 6.86193 13.1381C6.7369 13.013 6.66667 12.8435 6.66667 12.6667V2C6.66667 1.82319 6.7369 1.65362 6.86193 1.5286C6.98695 1.40357 7.15652 1.33333 7.33333 1.33333V1.33333Z" fill="var(--fill-0, black)" fill-opacity="0.88"/>
</svg>
