<svg preserveAspectRatio="none" width="100%" height="100%" overflow="visible" style="display: block;" viewBox="0 0 12.9169 13.7539" fill="none" xmlns="http://www.w3.org/2000/svg">
<path id="Vector" d="M12.8763 4.09961C12.9349 4.03516 12.9291 3.9375 12.8646 3.87891C12.8353 3.85352 12.7982 3.83789 12.7611 3.83789H11.3431C11.2963 3.83789 11.2533 3.85742 11.224 3.89258L8.8236 6.72852C8.76696 6.79492 8.66931 6.80273 8.6029 6.74609C8.58532 6.73047 8.57165 6.71289 8.56188 6.69141L7.32165 3.93164C7.29626 3.875 7.24157 3.83984 7.17907 3.83984H3.8861L3.90368 3.74805L4.05993 2.92188C4.26501 1.83984 4.80212 1.33203 5.73571 1.33203C6.09899 1.33203 6.42907 1.36523 6.68884 1.42383L6.96423 0.11914C6.52282 0.0273436 6.27673 0 5.89196 0C3.87438 0 2.83727 0.865234 2.45641 2.87695L2.27282 3.8418H0.36657C0.292351 3.8418 0.227898 3.89453 0.214226 3.9668L0.00328864 4.97852C-0.0142895 5.0625 0.0403982 5.14648 0.124383 5.16406C0.134148 5.16602 0.145867 5.16797 0.155632 5.16797H1.99743L0.259148 13.5645C0.24157 13.6484 0.296257 13.7324 0.380242 13.75C0.390007 13.752 0.401726 13.7539 0.411492 13.7539H1.70446C1.77868 13.7539 1.84313 13.7012 1.8568 13.6289L3.60876 5.16992H6.2611L7.59313 7.88672C7.62048 7.94336 7.61266 8.01172 7.5697 8.05859L4.04235 12.0234C3.98571 12.0879 3.99157 12.1875 4.05602 12.2441C4.08532 12.2695 4.12243 12.2832 4.15954 12.2832H5.57946C5.62634 12.2832 5.6693 12.2637 5.6986 12.2285L8.11462 9.36328C8.16931 9.29688 8.26891 9.28906 8.33532 9.34375C8.3529 9.35938 8.36657 9.37695 8.37634 9.39844L9.66149 12.1855C9.68688 12.2402 9.74157 12.2773 9.80407 12.2773H11.0658C11.1517 12.2773 11.222 12.207 11.222 12.1211C11.222 12.0977 11.2162 12.0742 11.2064 12.0527L9.34704 8.16797C9.3197 8.11133 9.32946 8.04297 9.37243 7.99609L12.8763 4.09961Z" fill="var(--fill-0, #FF831D)"/>
</svg>
