<svg preserveAspectRatio="none" width="100%" height="100%" overflow="visible" style="display: block;" viewBox="0 0 14 14" fill="none" xmlns="http://www.w3.org/2000/svg">
<g id="Frame 2147223093">
<path id="Vector" fill-rule="evenodd" clip-rule="evenodd" d="M5.19535 0.195379C2.43392 0.195379 0.195347 2.43396 0.195347 5.19538C0.195347 7.9568 2.43392 10.1954 5.19535 10.1954C6.37578 10.1954 7.46066 9.78632 8.31599 9.10222L12.8442 13.8046L13.8047 12.8798L9.23832 8.1378C9.8402 7.31222 10.1953 6.29528 10.1953 5.19538C10.1953 2.43396 7.95677 0.195379 5.19535 0.195379ZM1.52868 5.19538C1.52868 3.17034 3.1703 1.52871 5.19535 1.52871C7.22039 1.52871 8.86201 3.17034 8.86201 5.19538C8.86201 7.22042 7.22039 8.86205 5.19535 8.86205C3.1703 8.86205 1.52868 7.22042 1.52868 5.19538Z" fill="var(--fill-0, black)" fill-opacity="0.88"/>
</g>
</svg>
