<svg preserveAspectRatio="none" width="100%" height="100%" overflow="visible" style="display: block;" viewBox="0 0 24 24" fill="none" xmlns="http://www.w3.org/2000/svg">
<g id="Logo">
<g id="Rectangle">
</g>
<path id="Exclude" d="M12.3002 0C15.1388 0 17.4538 2.56882 17.5766 5.78711H22.5473C22.6689 5.78687 22.7863 5.83495 22.8725 5.9209C22.9585 6.00675 23.0061 6.1236 23.0062 6.24512C23.0067 6.25278 23.0067 6.26089 23.0062 6.26855L22.2338 21.8555L22.226 21.9873C22.1277 23.0815 21.2441 23.9644 20.1518 23.9941L20.0775 24H4.29238C3.22356 23.9593 2.42991 23.0912 2.32168 22.0088L2.30703 21.8096L1.6 6.28418V6.24805C1.60057 5.99807 1.8012 5.79446 2.05117 5.79004H7.02578C7.14755 2.56911 9.46175 0.000270218 12.3002 0ZM12.1342 8.75C10.2255 8.75631 8.72628 9.96292 8.6 11.5703C8.51765 12.7339 9.09376 13.6768 10.3295 14.3984C10.5883 14.5508 12.0086 15.1139 12.5727 15.2891C14.346 15.842 15.2686 16.8317 15.0512 17.9863C14.85 19.0336 13.7528 19.7097 12.2338 19.7305C11.0297 19.6844 9.9456 19.194 9.10586 18.54L8.96425 18.4307C8.85873 18.3495 8.74667 18.3554 8.67812 18.4609C8.62639 18.539 8.30234 19.007 8.22011 19.1299C8.1435 19.238 8.1839 19.2985 8.26406 19.3643C8.61595 19.6592 8.99606 19.9193 9.39882 20.1396C10.2768 20.5861 11.2425 20.8338 12.2269 20.8662C12.9358 20.9001 13.6435 20.7795 14.3012 20.5127C15.3971 20.0473 16.1058 19.1181 16.2475 17.959L16.2436 17.9629C16.4727 16.084 15.2621 14.8829 12.06 13.8672C10.5166 13.3395 9.78794 12.6478 9.80507 11.6953C9.86928 10.6401 10.8524 9.87088 12.1566 9.84473C13.1847 9.85472 14.1873 10.1645 15.0424 10.7354C15.1587 10.8084 15.2402 10.7963 15.3061 10.6973C15.3972 10.5511 15.6209 10.2016 15.6967 10.0771C15.7283 10.0317 15.7391 9.97471 15.726 9.9209C15.7128 9.86719 15.6773 9.82162 15.6283 9.7959C15.3165 9.59109 14.9878 9.41302 14.6459 9.26367C13.8513 8.92654 12.9973 8.7522 12.1342 8.75ZM12.3002 1.40039C10.2331 1.40067 8.54601 3.35011 8.47011 5.78613H16.1371C16.0576 3.34631 14.3723 1.39746 12.3041 1.39746L12.3002 1.40039Z" fill="var(--fill-0, #ED4300)"/>
</g>
</svg>
