<svg preserveAspectRatio="none" width="100%" height="100%" overflow="visible" style="display: block;" viewBox="0 0 30 30" fill="none" xmlns="http://www.w3.org/2000/svg">
<g id="icon">
<rect id="Rectangle" opacity="0.01" width="30" height="30" fill="var(--fill-0, black)" fill-opacity="0.85"/>
<path id="Exclude" d="M5.97656 13.5498C6.48416 13.2568 7.10959 13.2568 7.61719 13.5498C8.1248 13.8429 8.4375 14.3846 8.4375 14.9707C8.4375 15.5568 8.1248 16.0985 7.61719 16.3916C7.10959 16.6846 6.48416 16.6846 5.97656 16.3916C5.46895 16.0985 5.15625 15.5568 5.15625 14.9707C5.15625 14.3846 5.46895 13.8429 5.97656 13.5498ZM15 13.3301C15.9061 13.3301 16.6406 14.0646 16.6406 14.9707C16.6406 15.8768 15.9061 16.6113 15 16.6113C14.0939 16.6113 13.3594 15.8768 13.3594 14.9707C13.3594 14.0646 14.0939 13.3301 15 13.3301ZM23.2031 13.3301C24.1092 13.3301 24.8438 14.0646 24.8438 14.9707C24.8438 15.8768 24.1092 16.6113 23.2031 16.6113C22.297 16.6113 21.5625 15.8768 21.5625 14.9707C21.5625 14.0646 22.297 13.3301 23.2031 13.3301Z" fill="var(--fill-0, black)" fill-opacity="0.85"/>
</g>
</svg>
