<svg preserveAspectRatio="none" width="100%" height="100%" overflow="visible" style="display: block;" viewBox="0 0 18.75 16.5" fill="none" xmlns="http://www.w3.org/2000/svg">
<path id="Vector" d="M6.9375 6.60938H18.1875C18.2906 6.60938 18.375 6.525 18.375 6.42188V5.10938C18.375 5.00625 18.2906 4.92188 18.1875 4.92188H6.9375C6.83437 4.92188 6.75 5.00625 6.75 5.10938V6.42188C6.75 6.525 6.83437 6.60938 6.9375 6.60938ZM6.75 11.3906C6.75 11.4938 6.83437 11.5781 6.9375 11.5781H18.1875C18.2906 11.5781 18.375 11.4938 18.375 11.3906V10.0781C18.375 9.975 18.2906 9.89062 18.1875 9.89062H6.9375C6.83437 9.89062 6.75 9.975 6.75 10.0781V11.3906ZM18.5625 0H0.1875C0.084375 0 0 0.084375 0 0.1875V1.5C0 1.60313 0.084375 1.6875 0.1875 1.6875H18.5625C18.6656 1.6875 18.75 1.60313 18.75 1.5V0.1875C18.75 0.084375 18.6656 0 18.5625 0ZM18.5625 14.8125H0.1875C0.084375 14.8125 0 14.8969 0 15V16.3125C0 16.4156 0.084375 16.5 0.1875 16.5H18.5625C18.6656 16.5 18.75 16.4156 18.75 16.3125V15C18.75 14.8969 18.6656 14.8125 18.5625 14.8125ZM0.0796875 8.41172L3.74297 11.2969C3.87891 11.4047 4.08047 11.3086 4.08047 11.1352V5.36484C4.08047 5.19141 3.88125 5.09531 3.74297 5.20312L0.0796875 8.08828C0.0550552 8.10743 0.035123 8.13196 0.0214121 8.15998C0.00770111 8.18801 0.000573635 8.2188 0.000573635 8.25C0.000573635 8.2812 0.00770111 8.31199 0.0214121 8.34002C0.035123 8.36804 0.0550552 8.39257 0.0796875 8.41172V8.41172Z" fill="var(--fill-0, black)" fill-opacity="0.85"/>
</svg>
