<svg preserveAspectRatio="none" width="100%" height="100%" overflow="visible" style="display: block;" viewBox="0 0 11.1563 17.7662" fill="none" xmlns="http://www.w3.org/2000/svg">
<path id="Vector" d="M10.8679 8.29237L0.302345 0.0400266C0.274737 0.0182911 0.241557 0.0047835 0.206618 0.00105482C0.171679 -0.00267386 0.136397 0.00352766 0.104823 0.0189473C0.0732498 0.0343669 0.0466661 0.0583793 0.0281245 0.0882266C0.00958281 0.118074 -0.00016456 0.152546 2.10193e-06 0.187683V1.9994C2.10193e-06 2.11425 0.0539084 2.2244 0.142971 2.29471L8.58045 8.883L0.142971 15.4713C0.0515646 15.5416 2.10193e-06 15.6517 2.10193e-06 15.7666V17.5783C2.10193e-06 17.7353 0.18047 17.8221 0.302345 17.726L10.8679 9.47362C10.9577 9.40357 11.0304 9.31397 11.0804 9.21162C11.1303 9.10928 11.1563 8.99689 11.1563 8.883C11.1563 8.7691 11.1303 8.65671 11.0804 8.55437C11.0304 8.45202 10.9577 8.36242 10.8679 8.29237Z" fill="var(--fill-0, black)" fill-opacity="0.85"/>
</svg>
