<svg preserveAspectRatio="none" width="100%" height="100%" overflow="visible" style="display: block;" viewBox="0 0 6.50783 10.3624" fill="none" xmlns="http://www.w3.org/2000/svg">
<path id="Vector" d="M6.50783 1.16643V0.109596C6.50783 0.0179946 6.40256 -0.0325914 6.33147 0.0234633L0.168184 4.83733C0.115818 4.87805 0.0734457 4.9302 0.0442986 4.98979C0.0151516 5.04938 0 5.11484 0 5.18118C0 5.24751 0.0151516 5.31298 0.0442986 5.37257C0.0734457 5.43216 0.115818 5.4843 0.168184 5.52503L6.33147 10.3389C6.40393 10.3949 6.50783 10.3444 6.50783 10.2528V9.19592C6.50783 9.12893 6.47639 9.06467 6.42443 9.02366L1.50256 5.18186L6.42443 1.3387C6.47639 1.29768 6.50783 1.23342 6.50783 1.16643V1.16643Z" fill="var(--fill-0, #BFBFBF)"/>
</svg>
